<svg width="18" height="18" viewBox="0 0 18 18" fill="none" xmlns="http://www.w3.org/2000/svg">
<g id="akar-icons:linkedin-fill">
<path id="Vector" fill-rule="evenodd" clip-rule="evenodd" d="M7.07175 6.72675H9.85725V8.11425C10.2585 7.31625 11.2875 6.59925 12.8332 6.59925C15.7965 6.59925 16.5 8.18775 16.5 11.1022V16.5H13.5V11.766C13.5 10.1062 13.0987 9.17025 12.0772 9.17025C10.6605 9.17025 10.0717 10.179 10.0717 11.7652V16.5H7.07175V6.72675ZM1.9275 16.3725H4.9275V6.59925H1.9275V16.3725ZM5.35725 3.4125C5.35736 3.66396 5.30749 3.91293 5.21054 4.14494C5.11359 4.37695 4.97149 4.58738 4.7925 4.764C4.4298 5.12447 3.93886 5.32624 3.4275 5.325C2.91704 5.32466 2.42723 5.1234 2.064 4.76475C1.88566 4.58753 1.74404 4.37687 1.64726 4.14482C1.55048 3.91278 1.50043 3.66392 1.5 3.4125C1.5 2.90475 1.7025 2.41875 2.06475 2.06025C2.42766 1.70112 2.91768 1.49978 3.42825 1.5C3.93975 1.5 4.43025 1.70175 4.7925 2.06025C5.154 2.41875 5.35725 2.90475 5.35725 3.4125Z" fill="#383838"/>
</g>
</svg>
