<svg width="18" height="18" viewBox="0 0 18 18" fill="none" xmlns="http://www.w3.org/2000/svg">
<g id="akar-icons:instagram-fill">
<path id="Vector" fill-rule="evenodd" clip-rule="evenodd" d="M5.90795 1.545C6.70773 1.50818 6.96273 1.5 9 1.5C11.0373 1.5 11.2923 1.50886 12.0914 1.545C12.8905 1.58114 13.4359 1.70864 13.9132 1.89341C14.413 2.08227 14.8664 2.3775 15.2414 2.75932C15.6232 3.13364 15.9177 3.58636 16.1059 4.08682C16.2914 4.56409 16.4182 5.10955 16.455 5.90727C16.4918 6.70841 16.5 6.96341 16.5 9C16.5 11.0373 16.4911 11.2923 16.455 12.092C16.4189 12.8898 16.2914 13.4352 16.1059 13.9125C15.9177 14.413 15.6227 14.8665 15.2414 15.2414C14.8664 15.6232 14.413 15.9177 13.9132 16.1059C13.4359 16.2914 12.8905 16.4182 12.0927 16.455C11.2923 16.4918 11.0373 16.5 9 16.5C6.96273 16.5 6.70773 16.4911 5.90795 16.455C5.11023 16.4189 4.56477 16.2914 4.0875 16.1059C3.58699 15.9177 3.13351 15.6227 2.75864 15.2414C2.37708 14.8668 2.08181 14.4136 1.89341 13.9132C1.70864 13.4359 1.58182 12.8905 1.545 12.0927C1.50818 11.2916 1.5 11.0366 1.5 9C1.5 6.96273 1.50886 6.70773 1.545 5.90864C1.58114 5.10955 1.70864 4.56409 1.89341 4.08682C2.08208 3.58642 2.37758 3.13317 2.75932 2.75864C3.13366 2.37716 3.58669 2.08189 4.08682 1.89341C4.56409 1.70864 5.10955 1.58182 5.90727 1.545H5.90795ZM12.0307 2.895C11.2398 2.85886 11.0025 2.85136 9 2.85136C6.9975 2.85136 6.76023 2.85886 5.96932 2.895C5.23773 2.92841 4.84091 3.05045 4.57636 3.15341C4.22659 3.28977 3.97636 3.45136 3.71386 3.71386C3.46503 3.95594 3.27353 4.25065 3.15341 4.57636C3.05045 4.84091 2.92841 5.23773 2.895 5.96932C2.85886 6.76023 2.85136 6.9975 2.85136 9C2.85136 11.0025 2.85886 11.2398 2.895 12.0307C2.92841 12.7623 3.05045 13.1591 3.15341 13.4236C3.27341 13.7489 3.465 14.0441 3.71386 14.2861C3.95591 14.535 4.25114 14.7266 4.57636 14.8466C4.84091 14.9495 5.23773 15.0716 5.96932 15.105C6.76023 15.1411 6.99682 15.1486 9 15.1486C11.0032 15.1486 11.2398 15.1411 12.0307 15.105C12.7623 15.0716 13.1591 14.9495 13.4236 14.8466C13.7734 14.7102 14.0236 14.5486 14.2861 14.2861C14.535 14.0441 14.7266 13.7489 14.8466 13.4236C14.9495 13.1591 15.0716 12.7623 15.105 12.0307C15.1411 11.2398 15.1486 11.0025 15.1486 9C15.1486 6.9975 15.1411 6.76023 15.105 5.96932C15.0716 5.23773 14.9495 4.84091 14.8466 4.57636C14.7102 4.22659 14.5486 3.97636 14.2861 3.71386C14.044 3.46505 13.7493 3.27355 13.4236 3.15341C13.1591 3.05045 12.7623 2.92841 12.0307 2.895ZM8.04205 11.312C8.57704 11.5347 9.17276 11.5648 9.72745 11.3971C10.2821 11.2294 10.7614 10.8743 11.0834 10.3924C11.4053 9.91062 11.55 9.33196 11.4928 8.7553C11.4355 8.17864 11.1798 7.63975 10.7693 7.23068C10.5077 6.96919 10.1913 6.76896 9.84295 6.64442C9.49463 6.51987 9.12302 6.47411 8.75488 6.51042C8.38675 6.54673 8.03124 6.66421 7.71396 6.85441C7.39667 7.0446 7.12551 7.30278 6.91998 7.61035C6.71445 7.91793 6.57967 8.26724 6.52535 8.63316C6.47103 8.99907 6.49851 9.37247 6.60582 9.72649C6.71313 10.0805 6.8976 10.4063 7.14595 10.6805C7.39429 10.9547 7.70034 11.1704 8.04205 11.312ZM6.27409 6.27409C6.63206 5.91612 7.05704 5.63216 7.52475 5.43843C7.99246 5.2447 8.49375 5.14498 9 5.14498C9.50625 5.14498 10.0075 5.2447 10.4753 5.43843C10.943 5.63216 11.3679 5.91612 11.7259 6.27409C12.0839 6.63206 12.3678 7.05704 12.5616 7.52475C12.7553 7.99246 12.855 8.49375 12.855 9C12.855 9.50625 12.7553 10.0075 12.5616 10.4753C12.3678 10.943 12.0839 11.3679 11.7259 11.7259C11.003 12.4489 10.0224 12.855 9 12.855C7.97759 12.855 6.99705 12.4489 6.27409 11.7259C5.55113 11.003 5.14498 10.0224 5.14498 9C5.14498 7.97759 5.55113 6.99705 6.27409 6.27409ZM13.71 5.71909C13.7987 5.63541 13.8697 5.53478 13.9188 5.42316C13.968 5.31155 13.9942 5.19121 13.996 5.06927C13.9977 4.94734 13.975 4.82628 13.9292 4.71328C13.8833 4.60028 13.8153 4.49762 13.7291 4.41139C13.6428 4.32516 13.5402 4.25711 13.4272 4.21126C13.3142 4.16542 13.1931 4.14271 13.0712 4.14449C12.9492 4.14627 12.8289 4.17249 12.7173 4.22161C12.6057 4.27073 12.505 4.34175 12.4214 4.43045C12.2586 4.60297 12.1695 4.83213 12.173 5.06927C12.1764 5.30641 12.2722 5.53287 12.4399 5.70057C12.6076 5.86828 12.834 5.96402 13.0712 5.96748C13.3083 5.97093 13.5375 5.88183 13.71 5.71909Z" fill="#383838"/>
</g>
</svg>
