<svg width="18" height="18" viewBox="0 0 18 18" fill="none" xmlns="http://www.w3.org/2000/svg">
<g id="carbon:logo-twitter">
<path id="Vector" d="M6.03273 15.9998C7.26119 16.0075 8.47897 15.7713 9.61542 15.3048C10.7519 14.8383 11.7844 14.1508 12.653 13.2823C13.5217 12.4137 14.2093 11.3813 14.6758 10.245C15.1424 9.10868 15.3786 7.89105 15.3709 6.66272V6.23368C16.0077 5.76718 16.5589 5.19393 17 4.53934C16.4004 4.80156 15.7659 4.97547 15.1164 5.05564C15.805 4.64535 16.3217 3.99952 16.5709 3.23767C15.9291 3.62267 15.2253 3.89333 14.4909 4.03758C13.9963 3.51063 13.3418 3.16136 12.6287 3.04379C11.9156 2.92623 11.1836 3.04693 10.546 3.38722C9.90839 3.72751 9.40072 4.26842 9.10153 4.92626C8.80234 5.58409 8.72832 6.32218 8.89091 7.02632C7.5862 6.96228 6.30961 6.6242 5.14426 6.03407C3.97891 5.44395 2.95094 4.61502 2.12727 3.60126C1.71194 4.32203 1.58606 5.17368 1.7751 5.98377C1.96414 6.79385 2.45399 7.50184 3.14545 7.96439C2.63535 7.94472 2.13706 7.80521 1.69091 7.55716V7.59352C1.68638 8.34677 1.94016 9.07882 2.40997 9.66766C2.87977 10.2565 3.53722 10.6666 4.27273 10.8295C3.79828 10.9571 3.3013 10.977 2.81818 10.8877C3.03112 11.5301 3.43759 12.0909 3.98185 12.4932C4.52612 12.8955 5.18152 13.1195 5.85818 13.1347C4.70124 14.0659 3.26334 14.5784 1.77818 14.5891C1.51778 14.5815 1.258 14.5597 1 14.5236C2.50324 15.4813 4.25033 15.9861 6.03273 15.978" fill="#383838"/>
</g>
</svg>
