<svg width="20" height="20" viewBox="0 0 20 20" fill="none" xmlns="http://www.w3.org/2000/svg">
<g id="fluent:call-24-filled">
<path id="Vector" d="M5.86004 1.63396L6.82077 1.33296C7.72168 1.05121 8.6842 1.50709 9.06992 2.39785L9.83779 4.17237C10.1717 4.945 9.98601 5.85414 9.37885 6.41939L7.68686 7.99266C7.79132 8.93417 8.11454 9.86081 8.65562 10.7726C9.16944 11.6547 9.85866 12.4268 10.6824 13.0432L12.7146 12.3782C13.4843 12.1271 14.3236 12.4167 14.795 13.0966L15.8959 14.6804C16.4451 15.4714 16.3459 16.5616 15.6647 17.2319L14.9352 17.9503C14.2084 18.6652 13.17 18.925 12.2102 18.631C9.94226 17.938 7.85918 15.8809 5.95736 12.4596C4.05286 9.03305 3.38052 6.12452 3.94125 3.73749C4.17697 2.73298 4.90645 1.93234 5.86004 1.63396Z" fill="#CDCDCD"/>
</g>
</svg>
