<svg width="20" height="20" viewBox="0 0 20 20" fill="none" xmlns="http://www.w3.org/2000/svg">
<g id="ic:round-local-post-office">
<path id="Vector" d="M17 2.5H3C2.0375 2.5 1.25 3.34375 1.25 4.375V15.625C1.25 16.6562 2.0375 17.5 3 17.5H17C17.9625 17.5 18.75 16.6562 18.75 15.625V4.375C18.75 3.34375 17.9625 2.5 17 2.5ZM16.65 6.48438L10.9275 10.3188C10.3588 10.7031 9.64125 10.7031 9.0725 10.3188L3.35 6.48438C3.26226 6.4316 3.18543 6.36031 3.12415 6.2748C3.06288 6.18929 3.01843 6.09135 2.9935 5.98691C2.96858 5.88247 2.96369 5.77369 2.97914 5.66716C2.99458 5.56064 3.03004 5.45858 3.08337 5.36716C3.1367 5.27574 3.20678 5.19686 3.28939 5.13531C3.37199 5.07375 3.46539 5.03079 3.56393 5.00903C3.66248 4.98727 3.76412 4.98716 3.86271 5.0087C3.9613 5.03025 4.05478 5.073 4.1375 5.13437L10 9.0625L15.8625 5.13437C15.9452 5.073 16.0387 5.03025 16.1373 5.0087C16.2359 4.98716 16.3375 4.98727 16.4361 5.00903C16.5346 5.03079 16.628 5.07375 16.7106 5.13531C16.7932 5.19686 16.8633 5.27574 16.9166 5.36716C16.97 5.45858 17.0054 5.56064 17.0209 5.66716C17.0363 5.77369 17.0314 5.88247 17.0065 5.98691C16.9816 6.09135 16.9371 6.18929 16.8758 6.2748C16.8146 6.36031 16.7377 6.4316 16.65 6.48438Z" fill="#CDCDCD"/>
</g>
</svg>
