<svg width="84" height="16" viewBox="0 0 84 16" fill="none" xmlns="http://www.w3.org/2000/svg">
<g id="Review">
<path id="Star 1" d="M7.56104 0.804892C7.75054 0.457421 8.24946 0.457422 8.43896 0.804893L10.3786 4.3614C10.4505 4.49326 10.5779 4.58581 10.7255 4.61346L14.7073 5.35911C15.0963 5.43196 15.2505 5.90647 14.9786 6.19407L12.1955 9.13776C12.0923 9.24691 12.0437 9.39666 12.063 9.5456L12.5843 13.5629C12.6352 13.9554 12.2316 14.2487 11.874 14.079L8.21441 12.3418C8.07873 12.2774 7.92127 12.2774 7.78558 12.3418L4.12595 14.079C3.7684 14.2487 3.36476 13.9554 3.41569 13.5629L3.93698 9.5456C3.95631 9.39665 3.90765 9.24691 3.80446 9.13776L1.0214 6.19407C0.749493 5.90647 0.903671 5.43196 1.29269 5.35911L5.2745 4.61346C5.42213 4.58581 5.54952 4.49326 5.62143 4.3614L7.56104 0.804892Z" fill="#F6B501"/>
<path id="Star 2" d="M24.561 0.804892C24.7505 0.457421 25.2495 0.457422 25.439 0.804893L27.3786 4.3614C27.4505 4.49326 27.5779 4.58581 27.7255 4.61346L31.7073 5.35911C32.0963 5.43196 32.2505 5.90647 31.9786 6.19407L29.1955 9.13776C29.0923 9.24691 29.0437 9.39666 29.063 9.5456L29.5843 13.5629C29.6352 13.9554 29.2316 14.2487 28.874 14.079L25.2144 12.3418C25.0787 12.2774 24.9213 12.2774 24.7856 12.3418L21.126 14.079C20.7684 14.2487 20.3648 13.9554 20.4157 13.5629L20.937 9.5456C20.9563 9.39665 20.9077 9.24691 20.8045 9.13776L18.0214 6.19407C17.7495 5.90647 17.9037 5.43196 18.2927 5.35911L22.2745 4.61346C22.4221 4.58581 22.5495 4.49326 22.6214 4.3614L24.561 0.804892Z" fill="#F6B501"/>
<path id="Star 3" d="M41.561 0.804892C41.7505 0.457421 42.2495 0.457422 42.439 0.804893L44.3786 4.3614C44.4505 4.49326 44.5779 4.58581 44.7255 4.61346L48.7073 5.35911C49.0963 5.43196 49.2505 5.90647 48.9786 6.19407L46.1955 9.13776C46.0923 9.24691 46.0437 9.39666 46.063 9.5456L46.5843 13.5629C46.6352 13.9554 46.2316 14.2487 45.874 14.079L42.2144 12.3418C42.0787 12.2774 41.9213 12.2774 41.7856 12.3418L38.126 14.079C37.7684 14.2487 37.3648 13.9554 37.4157 13.5629L37.937 9.5456C37.9563 9.39665 37.9077 9.24691 37.8045 9.13776L35.0214 6.19407C34.7495 5.90647 34.9037 5.43196 35.2927 5.35911L39.2745 4.61346C39.4221 4.58581 39.5495 4.49326 39.6214 4.3614L41.561 0.804892Z" fill="#F6B501"/>
<path id="Star 4" d="M58.561 0.804892C58.7505 0.457421 59.2495 0.457422 59.439 0.804893L61.3786 4.3614C61.4505 4.49326 61.5779 4.58581 61.7255 4.61346L65.7073 5.35911C66.0963 5.43196 66.2505 5.90647 65.9786 6.19407L63.1955 9.13776C63.0923 9.24691 63.0437 9.39666 63.063 9.5456L63.5843 13.5629C63.6352 13.9554 63.2316 14.2487 62.874 14.079L59.2144 12.3418C59.0787 12.2774 58.9213 12.2774 58.7856 12.3418L55.126 14.079C54.7684 14.2487 54.3648 13.9554 54.4157 13.5629L54.937 9.5456C54.9563 9.39665 54.9077 9.24691 54.8045 9.13776L52.0214 6.19407C51.7495 5.90647 51.9037 5.43196 52.2927 5.35911L56.2745 4.61346C56.4221 4.58581 56.5495 4.49326 56.6214 4.3614L58.561 0.804892Z" fill="#F6B501"/>
<path id="Star 6" d="M76.4288 11.8901L76.2144 12.3418L76.4288 11.8901C76.1575 11.7613 75.8425 11.7613 75.5712 11.8901L75.7856 12.3418L75.5712 11.8901L71.9115 13.6273L72.4328 9.60994C72.4715 9.31204 72.3742 9.01255 72.1678 8.79426L69.3847 5.85057L73.3665 5.10491C73.6618 5.04962 73.9166 4.86452 74.0604 4.60079L76 1.04429L77.9396 4.60079C78.0834 4.86452 78.3382 5.04962 78.6335 5.10491L82.6153 5.85057L79.8322 8.79426C79.6258 9.01255 79.5285 9.31205 79.5672 9.60994L80.0885 13.6273L76.4288 11.8901Z" stroke="#F6B501"/>
<path id="Star 5" d="M71.937 9.54561L71.4157 13.563C71.3648 13.9554 71.7684 14.2487 72.126 14.079L75 12.7147V1.83365L73.6214 4.3614C73.5495 4.49327 73.4221 4.58582 73.2745 4.61346L69.2927 5.35912C68.9037 5.43197 68.7495 5.90648 69.0214 6.19408L71.8045 9.13777C71.9077 9.24691 71.9563 9.39666 71.937 9.54561Z" fill="#F6B501"/>
</g>
</svg>
