<svg width="20" height="20" viewBox="0 0 20 20" fill="none" xmlns="http://www.w3.org/2000/svg">
<g id="wpf:phone-office">
<path id="Vector" d="M5.30327 1.25C4.7658 1.25 4.25034 1.46274 3.87029 1.84142C3.49024 2.2201 3.27673 2.7337 3.27673 3.26923V13.3654C3.27673 13.9009 3.49024 14.4145 3.87029 14.7932C4.25034 15.1719 4.7658 15.3846 5.30327 15.3846V15.6579C5.30327 16.2132 5.16614 16.6742 4.94457 16.9623C4.72233 17.249 4.44199 17.4038 3.95224 17.4038C3.4625 17.4038 3.18216 17.249 2.95992 16.9623C2.73835 16.6749 2.60122 16.2125 2.60122 15.6579V12.419C2.60372 12.3168 2.58279 12.2153 2.54001 12.1222C2.49723 12.0292 2.43373 11.9472 2.35435 11.8823C2.27496 11.8174 2.18177 11.7714 2.08186 11.7478C1.98195 11.7241 1.87796 11.7235 1.77777 11.746C1.62526 11.78 1.48933 11.8657 1.39313 11.9885C1.29693 12.1112 1.24641 12.2634 1.2502 12.419V15.6579C1.2502 16.4413 1.44947 17.1925 1.90477 17.7828C2.36006 18.3717 3.09772 18.75 3.95224 18.75C4.80677 18.75 5.54443 18.3717 5.99972 17.7821C6.45501 17.1932 6.65429 16.4413 6.65429 15.6579V15.3846C7.19176 15.3846 7.70722 15.1719 8.08727 14.7932C8.46732 14.4145 8.68083 13.9009 8.68083 13.3654V3.26923C8.68083 2.7337 8.46732 2.2201 8.08727 1.84142C7.70722 1.46274 7.19176 1.25 6.65429 1.25L5.30327 1.25ZM11.3829 1.25C10.8454 1.25 10.3299 1.46274 9.94989 1.84142C9.56985 2.2201 9.35634 2.7337 9.35634 3.26923V13.3654C9.35634 13.9009 9.56985 14.4145 9.94989 14.7932C10.3299 15.1719 10.8454 15.3846 11.3829 15.3846H16.1115C17.2308 15.3846 18.75 14.5009 18.75 8.31731C18.75 2.13375 17.2308 1.25 16.1115 1.25H11.3829ZM11.7206 3.26923H16.4492C16.5388 3.26923 16.6247 3.30469 16.688 3.3678C16.7514 3.43091 16.787 3.51651 16.787 3.60577V5.625C16.787 5.71426 16.7514 5.79986 16.688 5.86297C16.6247 5.92608 16.5388 5.96154 16.4492 5.96154H11.7206C11.631 5.96154 11.5451 5.92608 11.4818 5.86297C11.4185 5.79986 11.3829 5.71426 11.3829 5.625V3.60577C11.3829 3.51651 11.4185 3.43091 11.4818 3.3678C11.5451 3.30469 11.631 3.26923 11.7206 3.26923ZM11.7206 7.30769H12.3961C12.4857 7.30769 12.5716 7.34315 12.635 7.40626C12.6983 7.46938 12.7339 7.55498 12.7339 7.64423V8.31731C12.7339 8.40656 12.6983 8.49216 12.635 8.55528C12.5716 8.61839 12.4857 8.65385 12.3961 8.65385H11.7206C11.631 8.65385 11.5451 8.61839 11.4818 8.55528C11.4185 8.49216 11.3829 8.40656 11.3829 8.31731V7.64423C11.3829 7.55498 11.4185 7.46938 11.4818 7.40626C11.5451 7.34315 11.631 7.30769 11.7206 7.30769ZM13.7472 7.30769H14.4227C14.5123 7.30769 14.5982 7.34315 14.6615 7.40626C14.7248 7.46938 14.7604 7.55498 14.7604 7.64423V8.31731C14.7604 8.40656 14.7248 8.49216 14.6615 8.55528C14.5982 8.61839 14.5123 8.65385 14.4227 8.65385H13.7472C13.6576 8.65385 13.5717 8.61839 13.5083 8.55528C13.445 8.49216 13.4094 8.40656 13.4094 8.31731V7.64423C13.4094 7.55498 13.445 7.46938 13.5083 7.40626C13.5717 7.34315 13.6576 7.30769 13.7472 7.30769ZM15.7737 7.30769H16.4492C16.5388 7.30769 16.6247 7.34315 16.688 7.40626C16.7514 7.46938 16.787 7.55498 16.787 7.64423V8.31731C16.787 8.40656 16.7514 8.49216 16.688 8.55528C16.6247 8.61839 16.5388 8.65385 16.4492 8.65385H15.7737C15.6841 8.65385 15.5982 8.61839 15.5349 8.55528C15.4715 8.49216 15.4359 8.40656 15.4359 8.31731V7.64423C15.4359 7.55498 15.4715 7.46938 15.5349 7.40626C15.5982 7.34315 15.6841 7.30769 15.7737 7.30769ZM11.7206 9.32692H12.3961C12.4857 9.32692 12.5716 9.36238 12.635 9.42549C12.6983 9.48861 12.7339 9.57421 12.7339 9.66346V10.3365C12.7339 10.4258 12.6983 10.5114 12.635 10.5745C12.5716 10.6376 12.4857 10.6731 12.3961 10.6731H11.7206C11.631 10.6731 11.5451 10.6376 11.4818 10.5745C11.4185 10.5114 11.3829 10.4258 11.3829 10.3365V9.66346C11.3829 9.57421 11.4185 9.48861 11.4818 9.42549C11.5451 9.36238 11.631 9.32692 11.7206 9.32692ZM13.7472 9.32692H14.4227C14.5123 9.32692 14.5982 9.36238 14.6615 9.42549C14.7248 9.48861 14.7604 9.57421 14.7604 9.66346V10.3365C14.7604 10.4258 14.7248 10.5114 14.6615 10.5745C14.5982 10.6376 14.5123 10.6731 14.4227 10.6731H13.7472C13.6576 10.6731 13.5717 10.6376 13.5083 10.5745C13.445 10.5114 13.4094 10.4258 13.4094 10.3365V9.66346C13.4094 9.57421 13.445 9.48861 13.5083 9.42549C13.5717 9.36238 13.6576 9.32692 13.7472 9.32692ZM15.7737 9.32692H16.4492C16.5388 9.32692 16.6247 9.36238 16.688 9.42549C16.7514 9.48861 16.787 9.57421 16.787 9.66346V10.3365C16.787 10.4258 16.7514 10.5114 16.688 10.5745C16.6247 10.6376 16.5388 10.6731 16.4492 10.6731H15.7737C15.6841 10.6731 15.5982 10.6376 15.5349 10.5745C15.4715 10.5114 15.4359 10.4258 15.4359 10.3365V9.66346C15.4359 9.57421 15.4715 9.48861 15.5349 9.42549C15.5982 9.36238 15.6841 9.32692 15.7737 9.32692ZM11.7206 11.3462H12.3961C12.4857 11.3462 12.5716 11.3816 12.635 11.4447C12.6983 11.5078 12.7339 11.5934 12.7339 11.6827V12.3558C12.7339 12.445 12.6983 12.5306 12.635 12.5937C12.5716 12.6569 12.4857 12.6923 12.3961 12.6923H11.7206C11.631 12.6923 11.5451 12.6569 11.4818 12.5937C11.4185 12.5306 11.3829 12.445 11.3829 12.3558V11.6827C11.3829 11.5934 11.4185 11.5078 11.4818 11.4447C11.5451 11.3816 11.631 11.3462 11.7206 11.3462ZM13.7472 11.3462H14.4227C14.5123 11.3462 14.5982 11.3816 14.6615 11.4447C14.7248 11.5078 14.7604 11.5934 14.7604 11.6827V12.3558C14.7604 12.445 14.7248 12.5306 14.6615 12.5937C14.5982 12.6569 14.5123 12.6923 14.4227 12.6923H13.7472C13.6576 12.6923 13.5717 12.6569 13.5083 12.5937C13.445 12.5306 13.4094 12.445 13.4094 12.3558V11.6827C13.4094 11.5934 13.445 11.5078 13.5083 11.4447C13.5717 11.3816 13.6576 11.3462 13.7472 11.3462ZM15.7737 11.3462H16.4492C16.5388 11.3462 16.6247 11.3816 16.688 11.4447C16.7514 11.5078 16.787 11.5934 16.787 11.6827V12.3558C16.787 12.445 16.7514 12.5306 16.688 12.5937C16.6247 12.6569 16.5388 12.6923 16.4492 12.6923H15.7737C15.6841 12.6923 15.5982 12.6569 15.5349 12.5937C15.4715 12.5306 15.4359 12.445 15.4359 12.3558V11.6827C15.4359 11.5934 15.4715 11.5078 15.5349 11.4447C15.5982 11.3816 15.6841 11.3462 15.7737 11.3462Z" fill="#CDCDCD"/>
</g>
</svg>
